<?xml version="1.0" encoding="UTF-8" standalone="no"?>
<svg width="185px" height="20px" viewBox="0 0 185 20" version="1.1" xmlns="http://www.w3.org/2000/svg" xmlns:xlink="http://www.w3.org/1999/xlink">
    <!-- Generator: Sketch 48.2 (47327) - http://www.bohemiancoding.com/sketch -->
    <title>small-logo</title>
    <desc>Created with Sketch.</desc>
    <defs></defs>
    <g id="white" stroke="none" stroke-width="1" fill="none" fill-rule="evenodd" transform="translate(-155.000000, -70.000000)">
        <g id="Group" fill="#E21838">
            <g id="Group-4">
                <g id="small-logo" transform="translate(155.000000, 70.000000)">
                    <path d="M122.374753,18.9767238 L119.087601,13.9538825 L115.79797,13.9538825 L115.79797,18.9767238 L111.488075,18.9767238 L111.488075,1.64131249 L119.060338,1.64131249 C123.368581,1.64131249 126.248454,3.98750808 126.248454,7.73398588 C126.248454,10.0041779 125.153012,11.8373498 123.318188,12.9088342 L127.395942,18.9767238 L122.374753,18.9767238 Z M133.814108,5.38944255 L133.814108,8.55019758 L141.514421,8.55019758 L141.514421,12.221498 L133.814108,12.221498 L133.814108,15.2285937 L142.609863,15.2285937 L142.609863,18.9767238 L129.505865,18.9767238 L129.505865,1.64131249 L142.609863,1.64131249 L142.609863,5.38944255 L133.814108,5.38944255 Z M161.820579,10.2594506 C161.820579,15.4078629 157.920442,18.9767238 152.464711,18.9767238 L145.504606,18.9767238 L145.504606,1.64131249 L152.464711,1.64131249 C157.920442,1.64131249 161.820579,5.1845635 161.820579,10.2594506 Z M164.190732,18.9767238 L164.190732,1.64131249 L168.498975,1.64131249 L168.498975,18.9767238 L164.190732,18.9767238 Z M185,5.49105595 L180.027552,5.49105595 L180.027552,18.9767238 L175.744919,18.9767238 L175.744919,5.49105595 L170.774124,5.49105595 L170.774124,1.64131249 L185,1.64131249 L185,5.49105595 Z M104.467663,12.7378262 L109.030352,12.7378262 C108.134833,16.6974444 104.880725,19.308 100.506392,19.308 C95.2786721,19.308 91.3289675,15.5350862 91.3289675,10.3090181 C91.3289675,5.0829501 95.2786721,1.30921016 100.506392,1.30921016 C104.879073,1.30921016 108.134833,3.92141806 109.030352,7.88103617 L104.467663,7.88103617 C103.802632,6.28496227 102.415568,5.33822279 100.47913,5.33822279 C97.6504776,5.33822279 95.686778,7.42749343 95.686778,10.3090181 C95.686778,13.1905429 97.6504776,15.2806396 100.47913,15.2806396 C102.415568,15.2806396 103.802632,14.3347263 104.467663,12.7378262 Z M15.6534204,1.64131249 L15.6534204,18.9758977 L11.3691351,18.9758977 L11.3691351,12.4751184 L4.30824294,12.4751184 L4.30824294,18.9758977 L2.84217094e-14,18.9758977 L2.84217094e-14,1.64131249 L4.30824294,1.64131249 L4.30824294,8.60141735 L11.3691351,8.60141735 L11.3691351,1.64131249 L15.6534204,1.64131249 Z M65.1870615,18.9758977 L60.8788186,18.9758977 L60.8788186,10.2842344 L57.0290751,16.2224224 L57.0290751,16.2488584 L54.6324859,16.2488584 L54.6324859,16.2224224 L50.7587848,10.2321885 L50.7827425,18.9758977 L46.4744995,18.9758977 L46.4744995,1.64131249 L49.6873004,1.64131249 L55.8295413,10.895567 L61.9759129,1.64131249 L65.1870615,1.64131249 L65.1870615,18.9758977 Z M73.0691221,5.38861642 L73.0691221,8.55019758 L80.768609,8.55019758 L80.768609,12.221498 L73.0691221,12.221498 L73.0691221,15.2285937 L81.8640511,15.2285937 L81.8640511,18.9758977 L68.7608792,18.9758977 L68.7608792,1.64131249 L81.8640511,1.64131249 L81.8640511,5.38861642 L73.0691221,5.38861642 Z M31.06396,0.87879893 C37.9216253,0.87879893 43.4764912,6.17178312 43.4764912,12.7056074 C43.4764912,15.0088444 42.7858505,17.1584222 41.5887951,18.9758977 L35.6010396,18.9758977 C37.4193412,17.6003992 38.5990479,15.4260377 38.5990479,12.9699674 C38.5990479,8.80794865 35.2251526,5.43405331 31.06396,5.43405331 C26.901115,5.43405331 23.5272197,8.80794865 23.5272197,12.9699674 C23.5272197,15.4260377 24.7085788,17.6003992 26.5252281,18.9758977 L20.5391248,18.9758977 C19.3412433,17.1584222 18.6506026,15.0088444 18.6506026,12.7056074 C18.6506026,6.17178312 24.2095991,0.87879893 31.06396,0.87879893 Z M26.9928149,14.6420448 L35.135105,14.6420448 C34.5526867,16.3752555 32.9500038,17.6194001 31.0623077,17.6194001 C29.1779161,17.6194001 27.5752332,16.3752555 26.9928149,14.6420448 Z M115.79797,10.0801815 L118.984335,10.0801815 C120.641542,10.0801815 121.941863,9.16153023 121.941863,7.73398588 C121.941863,6.33205141 120.641542,5.43983619 118.984335,5.43983619 L115.79797,5.43983619 L115.79797,10.0801815 Z M157.46029,10.2594506 C157.46029,7.58032659 155.293364,5.51666583 152.464711,5.51666583 L149.812849,5.51666583 L149.812849,15.1013705 L152.464711,15.1013705 C155.293364,15.1013705 157.46029,13.0120998 157.46029,10.2594506 Z" id="Combined-Shape"></path>
                </g>
            </g>
        </g>
    </g>
</svg>